<svg width="24" height="24" viewBox="0 0 24 24" fill="none" xmlns="http://www.w3.org/2000/svg">
<circle cx="12" cy="12" r="12" fill="#FFB400"/>
<g clip-path="url(#clip0_2_476)">
<path d="M16.6601 11.7502C16.6123 10.832 16.2929 9.94861 15.7425 9.21209C15.5748 9.3927 15.3955 9.56223 15.2058 9.71959C14.623 10.2037 13.9718 10.5988 13.2733 10.8921C13.3707 11.0963 13.4599 11.294 13.5387 11.4807V11.4824C13.5609 11.5346 13.5823 11.5871 13.6028 11.6399C14.486 11.5408 15.417 11.5769 16.3194 11.6988C16.4396 11.7152 16.5528 11.7327 16.6601 11.7502ZM11.1855 7.40434C11.754 8.20535 12.2782 9.03688 12.7558 9.89517C13.4693 9.614 14.059 9.25934 14.5338 8.86442C14.6987 8.72858 14.8538 8.58142 14.9982 8.424C14.1587 7.71801 13.0967 7.33161 11.9998 7.33317C11.7269 7.33298 11.4544 7.3566 11.1855 7.40375V7.40434ZM7.48075 10.8314C7.87814 10.8214 8.27505 10.7975 8.67075 10.7597C9.62721 10.6741 10.5755 10.5138 11.5069 10.2802C11.0201 9.43446 10.4946 8.61167 9.93192 7.81442C9.33092 8.11215 8.80099 8.53566 8.37806 9.05621C7.95514 9.57677 7.64912 10.1822 7.48075 10.8314ZM8.37325 14.9369C8.59959 14.6062 8.89709 14.234 9.292 13.8292C10.1402 12.96 11.1412 12.2833 12.2997 11.91L12.3358 11.8995C12.2396 11.6872 12.1492 11.4976 12.0582 11.3191C10.9872 11.6312 9.859 11.826 8.73492 11.9269C8.18659 11.9765 7.69484 11.9981 7.33317 12.0016C7.33214 13.0706 7.69968 14.1073 8.37384 14.9369H8.37325ZM13.7528 16.3253C13.5278 15.1908 13.2094 14.0769 12.8008 12.995C11.6329 13.4191 10.7025 14.0392 9.98325 14.7788C9.69299 15.0719 9.4354 15.3956 9.215 15.7443C10.0193 16.3444 10.9963 16.6679 11.9998 16.6665C12.6006 16.6674 13.1959 16.5519 13.7528 16.3264V16.3253ZM14.8453 15.6982C15.7561 14.998 16.3765 13.9865 16.5878 12.8573C16.3894 12.8078 16.138 12.7582 15.8615 12.7197C15.2468 12.6311 14.623 12.6247 14.0065 12.7004C14.3536 13.6797 14.6339 14.6815 14.8453 15.6988V15.6982ZM11.9998 17.8332C8.77809 17.8332 6.1665 15.2216 6.1665 11.9998C6.1665 8.77809 8.77809 6.1665 11.9998 6.1665C15.2216 6.1665 17.8332 8.77809 17.8332 11.9998C17.8332 15.2216 15.2216 17.8332 11.9998 17.8332Z" fill="#2B2B2B"/>
</g>
<defs>
<clipPath id="clip0_2_476">
<rect width="14" height="14" fill="white" transform="translate(5 5)"/>
</clipPath>
</defs>
</svg>
