<svg width="24" height="24" viewBox="0 0 24 24" fill="none" xmlns="http://www.w3.org/2000/svg">
<circle cx="12" cy="12" r="12" fill="#FFB400"/>
<g clip-path="url(#clip0_2_460)">
<path d="M11.9998 6.1665C13.5848 6.1665 13.7825 6.17234 14.4043 6.2015C15.0256 6.23067 15.4485 6.32809 15.8207 6.47275C16.2057 6.62092 16.53 6.82159 16.8543 7.14534C17.151 7.43694 17.3805 7.78968 17.5269 8.179C17.671 8.55059 17.769 8.97409 17.7982 9.59534C17.8256 10.2172 17.8332 10.4149 17.8332 11.9998C17.8332 13.5848 17.8273 13.7825 17.7982 14.4043C17.769 15.0256 17.671 15.4485 17.5269 15.8207C17.3809 16.2102 17.1513 16.563 16.8543 16.8543C16.5626 17.1509 16.2099 17.3804 15.8207 17.5269C15.4491 17.671 15.0256 17.769 14.4043 17.7982C13.7825 17.8256 13.5848 17.8332 11.9998 17.8332C10.4149 17.8332 10.2172 17.8273 9.59534 17.7982C8.97409 17.769 8.55117 17.671 8.179 17.5269C7.78953 17.3808 7.43673 17.1512 7.14534 16.8543C6.84866 16.5628 6.61913 16.21 6.47275 15.8207C6.32809 15.4491 6.23067 15.0256 6.2015 14.4043C6.17409 13.7825 6.1665 13.5848 6.1665 11.9998C6.1665 10.4149 6.17234 10.2172 6.2015 9.59534C6.23067 8.9735 6.32809 8.55117 6.47275 8.179C6.61873 7.78944 6.84831 7.43661 7.14534 7.14534C7.43681 6.84856 7.78959 6.61901 8.179 6.47275C8.55117 6.32809 8.9735 6.23067 9.59534 6.2015C10.2172 6.17409 10.4149 6.1665 11.9998 6.1665ZM11.9998 9.08317C11.2263 9.08317 10.4844 9.39046 9.93744 9.93744C9.39046 10.4844 9.08317 11.2263 9.08317 11.9998C9.08317 12.7734 9.39046 13.5153 9.93744 14.0622C10.4844 14.6092 11.2263 14.9165 11.9998 14.9165C12.7734 14.9165 13.5153 14.6092 14.0622 14.0622C14.6092 13.5153 14.9165 12.7734 14.9165 11.9998C14.9165 11.2263 14.6092 10.4844 14.0622 9.93744C13.5153 9.39046 12.7734 9.08317 11.9998 9.08317ZM15.7915 8.93734C15.7915 8.74395 15.7147 8.55848 15.5779 8.42174C15.4412 8.28499 15.2557 8.20817 15.0623 8.20817C14.869 8.20817 14.6835 8.28499 14.5467 8.42174C14.41 8.55848 14.3332 8.74395 14.3332 8.93734C14.3332 9.13072 14.41 9.31619 14.5467 9.45294C14.6835 9.58968 14.869 9.6665 15.0623 9.6665C15.2557 9.6665 15.4412 9.58968 15.5779 9.45294C15.7147 9.31619 15.7915 9.13072 15.7915 8.93734ZM11.9998 10.2498C12.464 10.2498 12.9091 10.4342 13.2373 10.7624C13.5655 11.0906 13.7498 11.5357 13.7498 11.9998C13.7498 12.464 13.5655 12.9091 13.2373 13.2373C12.9091 13.5655 12.464 13.7498 11.9998 13.7498C11.5357 13.7498 11.0906 13.5655 10.7624 13.2373C10.4342 12.9091 10.2498 12.464 10.2498 11.9998C10.2498 11.5357 10.4342 11.0906 10.7624 10.7624C11.0906 10.4342 11.5357 10.2498 11.9998 10.2498Z" fill="#2B2B2B"/>
</g>
<defs>
<clipPath id="clip0_2_460">
<rect width="14" height="14" fill="white" transform="translate(5 5)"/>
</clipPath>
</defs>
</svg>
