<svg width="24" height="24" viewBox="0 0 24 24" fill="none" xmlns="http://www.w3.org/2000/svg">
<circle cx="12" cy="12" r="12" fill="#FFB400"/>
<g clip-path="url(#clip0_2_464)">
<path d="M17.9277 8.29953C17.4823 8.49652 17.0101 8.62589 16.5265 8.68337C17.0362 8.37854 17.4177 7.89879 17.5998 7.33353C17.1215 7.6182 16.5971 7.8177 16.0505 7.92562C15.6834 7.53279 15.1967 7.27226 14.6662 7.18454C14.1358 7.09682 13.5911 7.18682 13.1171 7.44055C12.643 7.69428 12.2661 8.09752 12.0448 8.58758C11.8236 9.07764 11.7705 9.62707 11.8937 10.1505C10.9237 10.1018 9.97471 9.84976 9.10843 9.41059C8.24216 8.97142 7.47792 8.35498 6.86535 7.60128C6.64852 7.97371 6.53457 8.39708 6.53518 8.82803C6.53518 9.67387 6.96568 10.4211 7.62018 10.8586C7.23285 10.8464 6.85405 10.7418 6.51535 10.5535V10.5839C6.51546 11.1472 6.7104 11.6931 7.06709 12.1292C7.42379 12.5652 7.9203 12.8644 8.47243 12.9761C8.11287 13.0736 7.73586 13.0879 7.36993 13.0181C7.5256 13.503 7.82902 13.9271 8.23769 14.2309C8.64637 14.5348 9.13984 14.7032 9.64901 14.7127C9.14296 15.1101 8.56353 15.4039 7.94386 15.5773C7.32419 15.7507 6.67642 15.8002 6.0376 15.723C7.15275 16.4402 8.4509 16.8209 9.77676 16.8197C14.2643 16.8197 16.7184 13.1021 16.7184 9.87804C16.7184 9.77304 16.7155 9.66687 16.7108 9.56303C17.1885 9.2178 17.6008 8.79013 17.9283 8.30012L17.9277 8.29953Z" fill="#2B2B2B"/>
</g>
<defs>
<clipPath id="clip0_2_464">
<rect width="14" height="14" fill="white" transform="translate(5 5)"/>
</clipPath>
</defs>
</svg>
