<svg width="24" height="24" viewBox="0 0 24 24" fill="none" xmlns="http://www.w3.org/2000/svg">
<circle cx="12" cy="12" r="12" fill="#FFB400"/>
<g clip-path="url(#clip0_2_472)">
<path d="M17.5666 8.79066C17.8332 9.83016 17.8332 12.0002 17.8332 12.0002C17.8332 12.0002 17.8332 14.1702 17.5666 15.2097C17.4184 15.7842 16.985 16.2363 16.4361 16.3892C15.4392 16.6668 11.9998 16.6668 11.9998 16.6668C11.9998 16.6668 8.56225 16.6668 7.56359 16.3892C7.01234 16.234 6.5795 15.7825 6.43309 15.2097C6.1665 14.1702 6.1665 12.0002 6.1665 12.0002C6.1665 12.0002 6.1665 9.83016 6.43309 8.79066C6.58125 8.21608 7.01467 7.764 7.56359 7.61116C8.56225 7.3335 11.9998 7.3335 11.9998 7.3335C11.9998 7.3335 15.4392 7.3335 16.4361 7.61116C16.9873 7.76633 17.4202 8.21783 17.5666 8.79066ZM10.8332 14.0418L14.3332 12.0002L10.8332 9.9585V14.0418Z" fill="#2B2B2B"/>
</g>
<defs>
<clipPath id="clip0_2_472">
<rect width="14" height="14" fill="white" transform="translate(5 5)"/>
</clipPath>
</defs>
</svg>
